{
  "accessors": [
    {
      "bufferView": 2,
      "componentType": 5126,
      "count": 32201,
      "max": [
        -0.5868690013885498,
        -0.29115501046180725,
        25.069591522216797
      ],
      "min": [
        -6.9975910186767578,
        -14.800280570983887,
        -0.3304080069065094
      ],
      "type": "VEC3"
    },
    {
      "bufferView": 2,
      "byteOffset": 386412,
      "componentType": 5126,
      "count": 32201,
      "max": [
        0.99998313188552856,
        0.9999159574508667,
        0.99947130680084229
      ],
      "min": [
        -0.99985784292221069,
        -0.99826467037200928,
        -0.99983781576156616
      ],
      "type": "VEC3"
    },
    {
      "bufferView": 3,
      "componentType": 5126,
      "count": 32201,
      "max": [
        0.9999382495880127,
        0.99998319149017334,
        0.99997001886367798,
        1
      ],
      "min": [
        -0.99999260902404785,
        -0.99997895956039429,
        -0.99989569187164307,
        1
      ],
      "type": "VEC4"
    },
    {
      "bufferView": 1,
      "componentType": 5126,
      "count": 32201,
      "max": [
        0.99707001447677612,
        0.93261700868606567
      ],
      "min": [
        0.0019529999699443579,
        0.0019529999699443579
      ],
      "type": "VEC2"
    },
    {
      "bufferView": 0,
      "componentType": 5125,
      "count": 48204,
      "max": [
        32200
      ],
      "min": [
        0
      ],
      "type": "SCALAR"
    },
    {
      "bufferView": 2,
      "byteOffset": 772824,
      "componentType": 5126,
      "count": 32064,
      "max": [
        -0.19932200014591217,
        -2.0282580852508545,
        20.698909759521484
      ],
      "min": [
        -6.8604612350463867,
        -12.109116554260254,
        1.3280999660491943
      ],
      "type": "VEC3"
    },
    {
      "bufferView": 2,
      "byteOffset": 1157592,
      "componentType": 5126,
      "count": 32064,
      "max": [
        0.99972885847091675,
        0.99937564134597778,
        0.99949795007705688
      ],
      "min": [
        -0.99978810548782349,
        -0.99984163045883179,
        -0.9998965859413147
      ],
      "type": "VEC3"
    },
    {
      "bufferView": 3,
      "byteOffset": 515216,
      "componentType": 5126,
      "count": 32064,
      "max": [
        0.99998629093170166,
        0.99991405010223389,
        0.99993395805358887,
        1
      ],
      "min": [
        -0.99999028444290161,
        -0.99986904859542847,
        -0.99997603893280029,
        1
      ],
      "type": "VEC4"
    },
    {
      "bufferView": 1,
      "byteOffset": 257608,
      "componentType": 5126,
      "count": 32064,
      "max": [
        0.99707001447677612,
        0.93261700868606567
      ],
      "min": [
        0.0019529999699443579,
        0.0019529999699443579
      ],
      "type": "VEC2"
    },
    {
      "bufferView": 0,
      "byteOffset": 192816,
      "componentType": 5125,
      "count": 48048,
      "max": [
        32063
      ],
      "min": [
        0
      ],
      "type": "SCALAR"
    },
    {
      "bufferView": 2,
      "byteOffset": 1542360,
      "componentType": 5126,
      "count": 29764,
      "max": [
        3.5712149143218994,
        -4.8664851188659668,
        15.830275535583496
      ],
      "min": [
        -5.9750299453735352,
        -10.415055274963379,
        0.66704398393630981
      ],
      "type": "VEC3"
    },
    {
      "bufferView": 2,
      "byteOffset": 1899528,
      "componentType": 5126,
      "count": 29764,
      "max": [
        0.999237060546875,
        0.99971538782119751,
        0.98874229192733765
      ],
      "min": [
        -0.99830031394958496,
        -0.99903446435928345,
        -0.9945414662361145
      ],
      "type": "VEC3"
    },
    {
      "bufferView": 3,
      "byteOffset": 1028240,
      "componentType": 5126,
      "count": 29764,
      "max": [
        0.99999350309371948,
        0.99987328052520752,
        0.99974352121353149,
        1
      ],
      "min": [
        -0.99979710578918457,
        -0.99981075525283813,
        -0.99960565567016602,
        1
      ],
      "type": "VEC4"
    },
    {
      "bufferView": 1,
      "byteOffset": 514120,
      "componentType": 5126,
      "count": 29764,
      "max": [
        0.99755901098251343,
        0.9414060115814209
      ],
      "min": [
        0.0019529999699443579,
        0.0019529999699443579
      ],
      "type": "VEC2"
    },
    {
      "bufferView": 0,
      "byteOffset": 385008,
      "componentType": 5125,
      "count": 44544,
      "max": [
        29763
      ],
      "min": [
        0
      ],
      "type": "SCALAR"
    },
    {
      "bufferView": 2,
      "byteOffset": 2256696,
      "componentType": 5126,
      "count": 40011,
      "max": [
        1.7259479761123657,
        -5.5783309936523438,
        25.127437591552734
      ],
      "min": [
        -5.0071048736572266,
        -11.052962303161621,
        14.427577018737793
      ],
      "type": "VEC3"
    },
    {
      "bufferView": 2,
      "byteOffset": 2736828,
      "componentType": 5126,
      "count": 40011,
      "max": [
        0.99999547004699707,
        0.99999755620956421,
        0.99959415197372437
      ],
      "min": [
        -0.99999749660491943,
        -0.99985575675964355,
        -0.99951338768005371
      ],
      "type": "VEC3"
    },
    {
      "bufferView": 3,
      "byteOffset": 1504464,
      "componentType": 5126,
      "count": 40011,
      "max": [
        0.99971342086791992,
        0.99986910820007324,
        0.99999463558197021,
        1
      ],
      "min": [
        -0.99973201751708984,
        -0.9999769926071167,
        -0.99997186660766602,
        1
      ],
      "type": "VEC4"
    },
    {
      "bufferView": 1,
      "byteOffset": 752232,
      "componentType": 5126,
      "count": 40011,
      "max": [
        0.99414098262786865,
        0.95507800579071045
      ],
      "min": [
        0.0019529999699443579,
        0.0019529999699443579
      ],
      "type": "VEC2"
    },
    {
      "bufferView": 0,
      "byteOffset": 563184,
      "componentType": 5125,
      "count": 59934,
      "max": [
        40010
      ],
      "min": [
        0
      ],
      "type": "SCALAR"
    },
    {
      "bufferView": 2,
      "byteOffset": 3216960,
      "componentType": 5126,
      "count": 35463,
      "max": [
        4.4230599403381348,
        2.6889920234680176,
        25.730409622192383
      ],
      "min": [
        -12.260394096374512,
        -10.909770011901855,
        -0.19889800250530243
      ],
      "type": "VEC3"
    },
    {
      "bufferView": 2,
      "byteOffset": 3642516,
      "componentType": 5126,
      "count": 35463,
      "max": [
        0.99992603063583374,
        0.9999232292175293,
        0.99934262037277222
      ],
      "min": [
        -0.99997878074645996,
        -0.99996858835220337,
        -0.99916470050811768
      ],
      "type": "VEC3"
    },
    {
      "bufferView": 3,
      "byteOffset": 2144640,
      "componentType": 5126,
      "count": 35463,
      "max": [
        0.99998658895492554,
        0.9999549388885498,
        0.99999511241912842,
        1
      ],
      "min": [
        -0.9999961256980896,
        -0.99998730421066284,
        -0.99997657537460327,
        1
      ],
      "type": "VEC4"
    },
    {
      "bufferView": 1,
      "byteOffset": 1072320,
      "componentType": 5126,
      "count": 35463,
      "max": [
        0.9926760196685791,
        0.9414060115814209
      ],
      "min": [
        0.0019529999699443579,
        0.0019529999699443579
      ],
      "type": "VEC2"
    },
    {
      "bufferView": 0,
      "byteOffset": 802920,
      "componentType": 5125,
      "count": 53136,
      "max": [
        35462
      ],
      "min": [
        0
      ],
      "type": "SCALAR"
    },
    {
      "bufferView": 2,
      "byteOffset": 4068072,
      "componentType": 5126,
      "count": 39230,
      "max": [
        -4.5113978385925293,
        -12.378787994384766,
        15.232243537902832
      ],
      "min": [
        -7.1409077644348145,
        -15.005900382995605,
        8.6338329315185547
      ],
      "type": "VEC3"
    },
    {
      "bufferView": 2,
      "byteOffset": 4538832,
      "componentType": 5126,
      "count": 39230,
      "max": [
        0.99994558095932007,
        0.99999916553497314,
        1
      ],
      "min": [
        -0.9999992847442627,
        -0.99999064207077026,
        -1
      ],
      "type": "VEC3"
    },
    {
      "bufferView": 3,
      "byteOffset": 2712048,
      "componentType": 5126,
      "count": 39230,
      "max": [
        0.99999922513961792,
        0.99999743700027466,
        1,
        1
      ],
      "min": [
        -0.9999992847442627,
        -0.99999886751174927,
        -1,
        1
      ],
      "type": "VEC4"
    },
    {
      "bufferView": 1,
      "byteOffset": 1356024,
      "componentType": 5126,
      "count": 39230,
      "max": [
        0.99414098262786865,
        0.9453129768371582
      ],
      "min": [
        0.0019529999699443579,
        0.0019529999699443579
      ],
      "type": "VEC2"
    },
    {
      "bufferView": 0,
      "byteOffset": 1015464,
      "componentType": 5125,
      "count": 58353,
      "max": [
        39229
      ],
      "min": [
        0
      ],
      "type": "SCALAR"
    },
    {
      "bufferView": 2,
      "byteOffset": 5009592,
      "componentType": 5126,
      "count": 14680,
      "max": [
        -4.9035420417785645,
        -10.687379837036133,
        13.050972938537598
      ],
      "min": [
        -7.1579070091247559,
        -17.198118209838867,
        9.1925230026245117
      ],
      "type": "VEC3"
    },
    {
      "bufferView": 2,
      "byteOffset": 5185752,
      "componentType": 5126,
      "count": 14680,
      "max": [
        0.99983608722686768,
        0.99960494041442871,
        0.99813836812973022
      ],
      "min": [
        -0.9990808367729187,
        -0.99974042177200317,
        -0.99994641542434692
      ],
      "type": "VEC3"
    },
    {
      "bufferView": 3,
      "byteOffset": 3339728,
      "componentType": 5126,
      "count": 14680,
      "max": [
        0.99978768825531006,
        0.99983155727386475,
        0.99999898672103882,
        1
      ],
      "min": [
        -0.99999302625656128,
        -0.99994748830795288,
        -0.99933838844299316,
        1
      ],
      "type": "VEC4"
    },
    {
      "bufferView": 1,
      "byteOffset": 1669864,
      "componentType": 5126,
      "count": 14680,
      "max": [
        0.99707001447677612,
        0.9648439884185791
      ],
      "min": [
        0.0019529999699443579,
        0.0019529999699443579
      ],
      "type": "VEC2"
    },
    {
      "bufferView": 0,
      "byteOffset": 1248876,
      "componentType": 5125,
      "count": 22020,
      "max": [
        14679
      ],
      "min": [
        0
      ],
      "type": "SCALAR"
    },
    {
      "bufferView": 2,
      "byteOffset": 5361912,
      "componentType": 5126,
      "count": 19418,
      "max": [
        14.676054954528809,
        0.064018003642559052,
        16.897554397583008
      ],
      "min": [
        -15.122711181640625,
        -2.1151289939880371,
        3.6199600696563721
      ],
      "type": "VEC3"
    },
    {
      "bufferView": 2,
      "byteOffset": 5594928,
      "componentType": 5126,
      "count": 19418,
      "max": [
        0.99857610464096069,
        0.99922853708267212,
        0.99873083829879761
      ],
      "min": [
        -0.99958735704421997,
        -0.99906527996063232,
        -0.9999614953994751
      ],
      "type": "VEC3"
    },
    {
      "bufferView": 3,
      "byteOffset": 3574608,
      "componentType": 5126,
      "count": 19418,
      "max": [
        0.99979567527770996,
        0.99990689754486084,
        0.99981850385665894,
        1
      ],
      "min": [
        -0.99983209371566772,
        -0.99999821186065674,
        -0.9995233416557312,
        1
      ],
      "type": "VEC4"
    },
    {
      "bufferView": 1,
      "byteOffset": 1787304,
      "componentType": 5126,
      "count": 19418,
      "max": [
        0.98925799131393433,
        0.98925799131393433
      ],
      "min": [
        0.0019529999699443579,
        0.0019529999699443579
      ],
      "type": "VEC2"
    },
    {
      "bufferView": 0,
      "byteOffset": 1336956,
      "componentType": 5125,
      "count": 28932,
      "max": [
        19417
      ],
      "min": [
        0
      ],
      "type": "SCALAR"
    },
    {
      "bufferView": 2,
      "byteOffset": 5827944,
      "componentType": 5126,
      "count": 33889,
      "max": [
        21.533432006835938,
        1.2837510108947754,
        23.708337783813477
      ],
      "min": [
        2.7980771064758301,
        -1.3042759895324707,
        10.627050399780273
      ],
      "type": "VEC3"
    },
    {
      "bufferView": 2,
      "byteOffset": 6234612,
      "componentType": 5126,
      "count": 33889,
      "max": [
        0.96500158309936523,
        0.9999011754989624,
        0.99880588054656982
      ],
      "min": [
        -0.99633133411407471,
        -0.99996334314346313,
        -0.99995708465576172
      ],
      "type": "VEC3"
    },
    {
      "bufferView": 3,
      "byteOffset": 3885296,
      "componentType": 5126,
      "count": 33889,
      "max": [
        0.99995321035385132,
        0.99956923723220825,
        0.9998396635055542,
        1
      ],
      "min": [
        -0.99999696016311646,
        -0.99991112947463989,
        -0.99997717142105103,
        1
      ],
      "type": "VEC4"
    },
    {
      "bufferView": 1,
      "byteOffset": 1942648,
      "componentType": 5126,
      "count": 33889,
      "max": [
        0.99707001447677612,
        0.97558599710464478
      ],
      "min": [
        0.0019529999699443579,
        0.0019529999699443579
      ],
      "type": "VEC2"
    },
    {
      "bufferView": 0,
      "byteOffset": 1452684,
      "componentType": 5125,
      "count": 50682,
      "max": [
        33888
      ],
      "min": [
        0
      ],
      "type": "SCALAR"
    }
  ],
  "asset": {
    "extras": {
      "author": "LithiumPolygon (https://sketchfab.com/LithiumPolygon)",
      "license": "CC-BY-4.0 (http://creativecommons.org/licenses/by/4.0/)",
      "source": "https://sketchfab.com/3d-models/oc-october-31-irae-bbb0c45a90b84e0f9ce3365d5bbc52e7",
      "title": "OC October - 31: Irae"
    },
    "generator": "Sketchfab-6.76.0",
    "version": "2.0"
  },
  "bufferViews": [
    {
      "buffer": 0,
      "byteLength": 1655412,
      "byteOffset": 0,
      "name": "floatBufferViews",
      "target": 34963
    },
    {
      "buffer": 0,
      "byteLength": 2213760,
      "byteOffset": 1655412,
      "byteStride": 8,
      "name": "floatBufferViews",
      "target": 34962
    },
    {
      "buffer": 0,
      "byteLength": 6641280,
      "byteOffset": 3869172,
      "byteStride": 12,
      "name": "floatBufferViews",
      "target": 34962
    },
    {
      "buffer": 0,
      "byteLength": 4427520,
      "byteOffset": 10510452,
      "byteStride": 16,
      "name": "floatBufferViews",
      "target": 34962
    }
  ],
  "buffers": [
    {
      "byteLength": 14937972,
      "uri": "scene.bin"
    }
  ],
  "images": [
    {
      "uri": "textures/mat0_baseColor.png"
    },
    {
      "uri": "textures/mat1_baseColor.png"
    },
    {
      "uri": "textures/mat2_baseColor.png"
    },
    {
      "uri": "textures/mat3_baseColor.png"
    },
    {
      "uri": "textures/mat4_baseColor.png"
    },
    {
      "uri": "textures/mat5_baseColor.png"
    },
    {
      "uri": "textures/mat6_baseColor.png"
    },
    {
      "uri": "textures/mat7_baseColor.png"
    },
    {
      "uri": "textures/mat8_baseColor.png"
    }
  ],
  "materials": [
    {
      "doubleSided": true,
      "emissiveFactor": [
        0,
        0,
        0
      ],
      "name": "mat0",
      "pbrMetallicRoughness": {
        "baseColorFactor": [
          1,
          1,
          1,
          1
        ],
        "baseColorTexture": {
          "index": 0,
          "texCoord": 0
        },
        "metallicFactor": 0,
        "roughnessFactor": 0.683772233983162
      }
    },
    {
      "doubleSided": true,
      "emissiveFactor": [
        0,
        0,
        0
      ],
      "name": "mat1",
      "pbrMetallicRoughness": {
        "baseColorFactor": [
          1,
          1,
          1,
          1
        ],
        "baseColorTexture": {
          "index": 1,
          "texCoord": 0
        },
        "metallicFactor": 0,
        "roughnessFactor": 0.683772233983162
      }
    },
    {
      "doubleSided": true,
      "emissiveFactor": [
        0,
        0,
        0
      ],
      "name": "mat2",
      "pbrMetallicRoughness": {
        "baseColorFactor": [
          1,
          1,
          1,
          1
        ],
        "baseColorTexture": {
          "index": 2,
          "texCoord": 0
        },
        "metallicFactor": 0,
        "roughnessFactor": 0.683772233983162
      }
    },
    {
      "doubleSided": true,
      "emissiveFactor": [
        0,
        0,
        0
      ],
      "name": "mat3",
      "pbrMetallicRoughness": {
        "baseColorFactor": [
          1,
          1,
          1,
          1
        ],
        "baseColorTexture": {
          "index": 3,
          "texCoord": 0
        },
        "metallicFactor": 0,
        "roughnessFactor": 0.54374999999999996
      }
    },
    {
      "doubleSided": true,
      "emissiveFactor": [
        0,
        0,
        0
      ],
      "name": "mat4",
      "pbrMetallicRoughness": {
        "baseColorFactor": [
          1,
          1,
          1,
          1
        ],
        "baseColorTexture": {
          "index": 4,
          "texCoord": 0
        },
        "metallicFactor": 0,
        "roughnessFactor": 0.683772233983162
      }
    },
    {
      "doubleSided": true,
      "emissiveFactor": [
        0,
        0,
        0
      ],
      "name": "mat5",
      "pbrMetallicRoughness": {
        "baseColorFactor": [
          1,
          1,
          1,
          1
        ],
        "baseColorTexture": {
          "index": 5,
          "texCoord": 0
        },
        "metallicFactor": 1,
        "roughnessFactor": 0.31344696969696972
      }
    },
    {
      "doubleSided": true,
      "emissiveFactor": [
        1,
        1,
        1
      ],
      "emissiveTexture": {
        "index": 6,
        "texCoord": 0
      },
      "name": "mat6",
      "pbrMetallicRoughness": {
        "baseColorFactor": [
          1,
          1,
          1,
          1
        ],
        "baseColorTexture": {
          "index": 6,
          "texCoord": 0
        },
        "metallicFactor": 0,
        "roughnessFactor": 1
      }
    },
    {
      "doubleSided": true,
      "emissiveFactor": [
        0,
        0,
        0
      ],
      "name": "mat7",
      "pbrMetallicRoughness": {
        "baseColorFactor": [
          1,
          1,
          1,
          1
        ],
        "baseColorTexture": {
          "index": 7,
          "texCoord": 0
        },
        "metallicFactor": 0,
        "roughnessFactor": 0.30132575757575752
      }
    },
    {
      "doubleSided": true,
      "emissiveFactor": [
        0,
        0,
        0
      ],
      "name": "mat8",
      "pbrMetallicRoughness": {
        "baseColorFactor": [
          1,
          1,
          1,
          1
        ],
        "baseColorTexture": {
          "index": 8,
          "texCoord": 0
        },
        "metallicFactor": 1,
        "roughnessFactor": 0.24071969696969697
      }
    }
  ],
  "meshes": [
    {
      "primitives": [
        {
          "attributes": {
            "NORMAL": 1,
            "POSITION": 0,
            "TANGENT": 2,
            "TEXCOORD_0": 3
          },
          "indices": 4,
          "material": 0,
          "mode": 4
        }
      ]
    },
    {
      "primitives": [
        {
          "attributes": {
            "NORMAL": 6,
            "POSITION": 5,
            "TANGENT": 7,
            "TEXCOORD_0": 8
          },
          "indices": 9,
          "material": 1,
          "mode": 4
        }
      ]
    },
    {
      "primitives": [
        {
          "attributes": {
            "NORMAL": 11,
            "POSITION": 10,
            "TANGENT": 12,
            "TEXCOORD_0": 13
          },
          "indices": 14,
          "material": 2,
          "mode": 4
        }
      ]
    },
    {
      "primitives": [
        {
          "attributes": {
            "NORMAL": 16,
            "POSITION": 15,
            "TANGENT": 17,
            "TEXCOORD_0": 18
          },
          "indices": 19,
          "material": 3,
          "mode": 4
        }
      ]
    },
    {
      "primitives": [
        {
          "attributes": {
            "NORMAL": 21,
            "POSITION": 20,
            "TANGENT": 22,
            "TEXCOORD_0": 23
          },
          "indices": 24,
          "material": 4,
          "mode": 4
        }
      ]
    },
    {
      "primitives": [
        {
          "attributes": {
            "NORMAL": 26,
            "POSITION": 25,
            "TANGENT": 27,
            "TEXCOORD_0": 28
          },
          "indices": 29,
          "material": 5,
          "mode": 4
        }
      ]
    },
    {
      "primitives": [
        {
          "attributes": {
            "NORMAL": 31,
            "POSITION": 30,
            "TANGENT": 32,
            "TEXCOORD_0": 33
          },
          "indices": 34,
          "material": 6,
          "mode": 4
        }
      ]
    },
    {
      "primitives": [
        {
          "attributes": {
            "NORMAL": 36,
            "POSITION": 35,
            "TANGENT": 37,
            "TEXCOORD_0": 38
          },
          "indices": 39,
          "material": 7,
          "mode": 4
        }
      ]
    },
    {
      "primitives": [
        {
          "attributes": {
            "NORMAL": 41,
            "POSITION": 40,
            "TANGENT": 42,
            "TEXCOORD_0": 43
          },
          "indices": 44,
          "material": 8,
          "mode": 4
        }
      ]
    }
  ],
  "nodes": [
    {
      "children": [
        1
      ],
      "name": "RootNode (gltf orientation matrix)",
      "rotation": [
        -0.70710678118654746,
        -0,
        -0,
        0.70710678118654757
      ]
    },
    {
      "children": [
        2
      ],
      "name": "RootNode (model correction matrix)"
    },
    {
      "children": [
        3,
        4,
        5,
        6,
        7,
        8,
        9,
        10,
        11
      ],
      "name": "OC October - 31 Irae.obj.cleaner.materialmerger.gles"
    },
    {
      "mesh": 0,
      "name": ""
    },
    {
      "mesh": 1,
      "name": ""
    },
    {
      "mesh": 2,
      "name": ""
    },
    {
      "mesh": 3,
      "name": ""
    },
    {
      "mesh": 4,
      "name": ""
    },
    {
      "mesh": 5,
      "name": ""
    },
    {
      "mesh": 6,
      "name": ""
    },
    {
      "mesh": 7,
      "name": ""
    },
    {
      "mesh": 8,
      "name": ""
    }
  ],
  "samplers": [
    {
      "magFilter": 9729,
      "minFilter": 9987,
      "wrapS": 10497,
      "wrapT": 10497
    }
  ],
  "scene": 0,
  "scenes": [
    {
      "name": "OSG_Scene",
      "nodes": [
        0
      ]
    }
  ],
  "textures": [
    {
      "sampler": 0,
      "source": 0
    },
    {
      "sampler": 0,
      "source": 1
    },
    {
      "sampler": 0,
      "source": 2
    },
    {
      "sampler": 0,
      "source": 3
    },
    {
      "sampler": 0,
      "source": 4
    },
    {
      "sampler": 0,
      "source": 5
    },
    {
      "sampler": 0,
      "source": 6
    },
    {
      "sampler": 0,
      "source": 7
    },
    {
      "sampler": 0,
      "source": 8
    }
  ]
}

